<?xml version="1.0" encoding="utf-8"?>
<!-- Generator: Adobe Illustrator 21.0.2, SVG Export Plug-In . SVG Version: 6.00 Build 0)  -->
<svg version="1.1" id="Layer_1" xmlns="http://www.w3.org/2000/svg" xmlns:xlink="http://www.w3.org/1999/xlink" x="0px" y="0px"
	 viewBox="0 0 155.3 171.4" style="enable-background:new 0 0 155.3 171.4;" xml:space="preserve">
<style type="text/css">
	.st0{opacity:8.000000e-02;fill:#333030;enable-background:new    ;}
</style>
<title>lines</title>
<rect x="-2" y="0.2" class="st0" width="0.3" height="171"/>
<rect x="5" class="st0" width="0.3" height="171"/>
<rect x="10" class="st0" width="0.3" height="171"/>
<rect x="15" class="st0" width="0.3" height="171"/>
<rect x="20" class="st0" width="0.3" height="171"/>
<rect x="25" class="st0" width="0.3" height="171"/>
<rect x="30" class="st0" width="0.3" height="171"/>
<rect x="35" class="st0" width="0.3" height="171"/>
<rect x="40" class="st0" width="0.3" height="171"/>
<rect x="45" class="st0" width="0.3" height="171"/>
<rect x="50" class="st0" width="0.3" height="171"/>
<rect x="55" class="st0" width="0.3" height="171"/>
<rect x="60" class="st0" width="0.3" height="171"/>
<rect x="65" class="st0" width="0.3" height="171"/>
<rect x="70" class="st0" width="0.3" height="171"/>
<rect x="75" class="st0" width="0.3" height="171"/>
<rect x="80" class="st0" width="0.3" height="171.4"/>
<rect x="85" class="st0" width="0.3" height="171.4"/>
<rect x="90" class="st0" width="0.3" height="171.4"/>
<rect x="95" class="st0" width="0.3" height="171.4"/>
<rect x="100" class="st0" width="0.3" height="171.4"/>
<rect x="105" class="st0" width="0.3" height="171.4"/>
<rect x="110" class="st0" width="0.3" height="171.4"/>
<rect x="115" class="st0" width="0.3" height="171.4"/>
<rect x="120" class="st0" width="0.3" height="171.4"/>
<rect x="125" class="st0" width="0.3" height="171.4"/>
<rect x="130" class="st0" width="0.3" height="171.4"/>
<rect x="135" class="st0" width="0.3" height="171.4"/>
<rect x="140" class="st0" width="0.3" height="171.4"/>
<rect x="145" class="st0" width="0.3" height="171.4"/>
<rect x="150" class="st0" width="0.3" height="171.4"/>
<rect x="155" y="0" class="st0" width="0.3" height="171.4"/>
</svg>
